# xmcd CD database file
#
# Track frame offsets:
#	150
#	16343
#	32077
#	45796
#	68486
#	87025
#	104102
#	115013
#	131730
#
# Disc length: 3526 seconds
#
# Revision: 1
# Processed by: cddbd v1.5.1PL0 Copyright (c) Steve Scherf et al.
# Submitted via: CDex 1.51
#
DISCID=680dc409
DTITLE=Micah P. Hinson - The Baby and The Satellite
DYEAR=2005
DGENRE=Country
TTITLE0=The Dreams You Left Behind
TTITLE1=Wasted Away
TTITLE2=The Leading Guy
TTITLE3=Or Just Rearrange
TTITLE4=For Your Eyes
TTITLE5=The Day the Volume Won
TTITLE6=The Last Charge of Lt. Paul
TTITLE7=The Dreams You Left Behind (Reprise)
TTITLE8=The Baby and The Satellite
EXTD=YEAR: 2005
EXTT0=
EXTT1=
EXTT2=
EXTT3=
EXTT4=
EXTT5=
EXTT6=
EXTT7=
EXTT8=
PLAYORDER=
